<svg xmlns="http://www.w3.org/2000/svg" width="300" height="100"><path d="M24,137L-21,137L66,139Z" fill="#7887b0" stroke="#7887b0" stroke-width="1.51"/><path d="M127,136L66,139L172,135Z" fill="#5176a6" stroke="#5176a6" stroke-width="1.51"/><path d="M172,135L66,139L243,135Z" fill="#3c6ca2" stroke="#3c6ca2" stroke-width="1.51"/><path d="M243,135L66,139L293,136Z" fill="#28619b" stroke="#28619b" stroke-width="1.51"/><path d="M233,-29L295,-30L319,-39Z" fill="#8fa3ce" stroke="#8fa3ce" stroke-width="1.51"/><path d="M175,-31L233,-29L319,-39Z" fill="#96b2da" stroke="#96b2da" stroke-width="1.51"/><path d="M82,-40L175,-31L319,-39Z" fill="#a4c6e3" stroke="#a4c6e3" stroke-width="1.51"/><path d="M316,122L293,136L330,124Z" fill="#094286" stroke="#094286" stroke-width="1.51"/><path d="M319,56L321,66L333,43Z" fill="#3d6fa6" stroke="#3d6fa6" stroke-width="1.51"/><path d="M325,-12L308,10L336,14Z" fill="#7287b4" stroke="#7287b4" stroke-width="1.51"/><path d="M327,-32L325,-12L336,14Z" fill="#7989b4" stroke="#7989b4" stroke-width="1.51"/><path d="M317,39L333,43L337,26Z" fill="#5277a8" stroke="#5277a8" stroke-width="1.51"/><path d="M321,66L308,83L339,90Z" fill="#25609e" stroke="#25609e" stroke-width="1.51"/><path d="M308,83L317,106L339,90Z" fill="#19589a" stroke="#19589a" stroke-width="1.51"/><path d="M317,106L331,115L339,90Z" fill="#114d90" stroke="#114d90" stroke-width="1.51"/><path d="M331,115L330,124L339,90Z" fill="#0e488b" stroke="#0e488b" stroke-width="1.51"/><path d="M333,43L321,66L339,90Z" fill="#30669e" stroke="#30669e" stroke-width="1.51"/><path d="M337,26L333,43L339,90Z" fill="#3d6ba0" stroke="#3d6ba0" stroke-width="1.51"/><path d="M336,14L308,10L337,26Z" fill="#6781af" stroke="#6781af" stroke-width="1.51"/><path d="M308,10L317,39L337,26Z" fill="#6081b0" stroke="#6081b0" stroke-width="1.51"/><path d="M317,39L319,56L333,43Z" fill="#4775a9" stroke="#4775a9" stroke-width="1.51"/><path d="M316,122L330,124L331,115Z" fill="#094387" stroke="#094387" stroke-width="1.51"/><path d="M317,106L316,122L331,115Z" fill="#0b498e" stroke="#0b498e" stroke-width="1.51"/><path d="M305,-10L308,10L325,-12Z" fill="#798dbc" stroke="#798dbc" stroke-width="1.51"/><path d="M305,-10L325,-12L327,-32Z" fill="#7f8fbb" stroke="#7f8fbb" stroke-width="1.51"/><path d="M319,-39L305,-10L327,-32Z" fill="#8593bd" stroke="#8593bd" stroke-width="1.51"/><path d="M233,-29L278,-23L295,-30Z" fill="#8ea6d1" stroke="#8ea6d1" stroke-width="1.51"/><path d="M295,-30L305,-10L319,-39Z" fill="#8797c3" stroke="#8797c3" stroke-width="1.51"/><path d="M310,65L308,83L321,66Z" fill="#2c69a6" stroke="#2c69a6" stroke-width="1.51"/><path d="M308,10L294,29L317,39Z" fill="#6286b7" stroke="#6286b7" stroke-width="1.51"/><path d="M319,56L310,65L321,66Z" fill="#366ea7" stroke="#366ea7" stroke-width="1.51"/><path d="M285,42L310,65L317,39Z" fill="#457bb3" stroke="#457bb3" stroke-width="1.51"/><path d="M308,83L295,87L317,106Z" fill="#1a5ea2" stroke="#1a5ea2" stroke-width="1.51"/><path d="M297,118L316,122L317,106Z" fill="#0b4c94" stroke="#0b4c94" stroke-width="1.51"/><path d="M317,39L310,65L319,56Z" fill="#3f73ab" stroke="#3f73ab" stroke-width="1.51"/><path d="M285,42L289,63L310,65Z" fill="#3e79b5" stroke="#3e79b5" stroke-width="1.51"/><path d="M297,118L293,136L316,122Z" fill="#09478e" stroke="#09478e" stroke-width="1.51"/><path d="M294,29L285,42L317,39Z" fill="#5683b9" stroke="#5683b9" stroke-width="1.51"/><path d="M295,87L297,118L317,106Z" fill="#12569e" stroke="#12569e" stroke-width="1.51"/><path d="M305,-10L297,-3L308,10Z" fill="#7990c1" stroke="#7990c1" stroke-width="1.51"/><path d="M233,-29L255,-21L278,-23Z" fill="#8faad5" stroke="#8faad5" stroke-width="1.51"/><path d="M289,63L295,87L308,83Z" fill="#286bac" stroke="#286bac" stroke-width="1.51"/><path d="M289,63L308,83L310,65Z" fill="#2e6ead" stroke="#2e6ead" stroke-width="1.51"/><path d="M297,-3L283,6L308,10Z" fill="#7891c3" stroke="#7891c3" stroke-width="1.51"/><path d="M283,6L294,29L308,10Z" fill="#6e8ec1" stroke="#6e8ec1" stroke-width="1.51"/><path d="M295,-30L278,-23L297,-3Z" fill="#859bca" stroke="#859bca" stroke-width="1.51"/><path d="M295,-30L297,-3L305,-10Z" fill="#8296c5" stroke="#8296c5" stroke-width="1.51"/><path d="M200,128L172,135L243,135Z" fill="#28629e" stroke="#28629e" stroke-width="1.51"/><path d="M285,42L278,56L289,63Z" fill="#427fb9" stroke="#427fb9" stroke-width="1.51"/><path d="M268,124L243,135L293,136Z" fill="#114e93" stroke="#114e93" stroke-width="1.51"/><path d="M289,63L274,89L295,87Z" fill="#276eb0" stroke="#276eb0" stroke-width="1.51"/><path d="M268,124L293,136L297,118Z" fill="#0b4c94" stroke="#0b4c94" stroke-width="1.51"/><path d="M265,116L268,124L297,118Z" fill="#0e549e" stroke="#0e549e" stroke-width="1.51"/><path d="M295,87L274,89L297,118Z" fill="#1760a8" stroke="#1760a8" stroke-width="1.51"/><path d="M274,89L265,116L297,118Z" fill="#145ca5" stroke="#145ca5" stroke-width="1.51"/><path d="M272,-18L283,6L297,-3Z" fill="#7f99c9" stroke="#7f99c9" stroke-width="1.51"/><path d="M278,-23L272,-18L297,-3Z" fill="#849dcb" stroke="#849dcb" stroke-width="1.51"/><path d="M276,62L274,89L289,63Z" fill="#2f75b5" stroke="#2f75b5" stroke-width="1.51"/><path d="M283,6L268,11L294,29Z" fill="#7093c5" stroke="#7093c5" stroke-width="1.51"/><path d="M268,11L275,39L294,29Z" fill="#6590c3" stroke="#6590c3" stroke-width="1.51"/><path d="M275,39L285,42L294,29Z" fill="#5888be" stroke="#5888be" stroke-width="1.51"/><path d="M278,56L276,62L289,63Z" fill="#3c7cb8" stroke="#3c7cb8" stroke-width="1.51"/><path d="M272,-18L268,11L283,6Z" fill="#7e9bcb" stroke="#7e9bcb" stroke-width="1.51"/><path d="M275,39L278,56L285,42Z" fill="#4d85bd" stroke="#4d85bd" stroke-width="1.51"/><path d="M258,86L274,89L276,62Z" fill="#2b74b4" stroke="#2b74b4" stroke-width="1.51"/><path d="M82,-40L146,-27L175,-31Z" fill="#b8d6eb" stroke="#b8d6eb" stroke-width="1.51"/><path d="M175,-31L209,-24L233,-29Z" fill="#9cbedf" stroke="#9cbedf" stroke-width="1.51"/><path d="M244,-4L268,11L272,-18Z" fill="#82a1cf" stroke="#82a1cf" stroke-width="1.51"/><path d="M258,86L265,116L274,89Z" fill="#1c68ae" stroke="#1c68ae" stroke-width="1.51"/><path d="M268,11L240,37L275,39Z" fill="#6595c7" stroke="#6595c7" stroke-width="1.51"/><path d="M257,54L258,86L276,62Z" fill="#367eba" stroke="#367eba" stroke-width="1.51"/><path d="M257,54L276,62L278,56Z" fill="#4182bc" stroke="#4182bc" stroke-width="1.51"/><path d="M275,39L257,54L278,56Z" fill="#4986bf" stroke="#4986bf" stroke-width="1.51"/><path d="M255,-21L272,-18L278,-23Z" fill="#8ba4d1" stroke="#8ba4d1" stroke-width="1.51"/><path d="M257,54L245,73L258,86Z" fill="#347fbc" stroke="#347fbc" stroke-width="1.51"/><path d="M255,-21L244,-4L272,-18Z" fill="#89a6d3" stroke="#89a6d3" stroke-width="1.51"/><path d="M240,37L257,54L275,39Z" fill="#538ec4" stroke="#538ec4" stroke-width="1.51"/><path d="M242,8L240,37L268,11Z" fill="#719ecc" stroke="#719ecc" stroke-width="1.51"/><path d="M258,86L237,108L265,116Z" fill="#1c68ae" stroke="#1c68ae" stroke-width="1.51"/><path d="M237,108L246,119L265,116Z" fill="#1761a9" stroke="#1761a9" stroke-width="1.51"/><path d="M244,-4L242,8L268,11Z" fill="#7fa2d1" stroke="#7fa2d1" stroke-width="1.51"/><path d="M265,116L246,119L268,124Z" fill="#135aa2" stroke="#135aa2" stroke-width="1.51"/><path d="M246,119L243,135L268,124Z" fill="#15589d" stroke="#15589d" stroke-width="1.51"/><path d="M82,-40L106,-31L146,-27Z" fill="#c3dded" stroke="#c3dded" stroke-width="1.51"/><path d="M245,73L237,108L258,86Z" fill="#2675b7" stroke="#2675b7" stroke-width="1.51"/><path d="M175,-31L196,-24L209,-24Z" fill="#9ec1e1" stroke="#9ec1e1" stroke-width="1.51"/><path d="M222,90L237,108L245,73Z" fill="#2a78b9" stroke="#2a78b9" stroke-width="1.51"/><path d="M228,50L245,73L257,54Z" fill="#438ac3" stroke="#438ac3" stroke-width="1.51"/><path d="M240,37L228,50L257,54Z" fill="#5192c7" stroke="#5192c7" stroke-width="1.51"/><path d="M233,-29L244,-4L255,-21Z" fill="#8dacd6" stroke="#8dacd6" stroke-width="1.51"/><path d="M223,21L240,37L242,8Z" fill="#71a2cf" stroke="#71a2cf" stroke-width="1.51"/><path d="M225,123L200,128L243,135Z" fill="#215fa0" stroke="#215fa0" stroke-width="1.51"/><path d="M233,-29L227,-16L244,-4Z" fill="#8eafd8" stroke="#8eafd8" stroke-width="1.51"/><path d="M228,50L221,64L245,73Z" fill="#438cc4" stroke="#438cc4" stroke-width="1.51"/><path d="M225,123L243,135L246,119Z" fill="#1a5da1" stroke="#1a5da1" stroke-width="1.51"/><path d="M237,108L225,123L246,119Z" fill="#1c64aa" stroke="#1c64aa" stroke-width="1.51"/><path d="M224,10L223,21L242,8Z" fill="#7ba7d2" stroke="#7ba7d2" stroke-width="1.51"/><path d="M221,64L222,90L245,73Z" fill="#3684c0" stroke="#3684c0" stroke-width="1.51"/><path d="M224,10L242,8L244,-4Z" fill="#81a7d4" stroke="#81a7d4" stroke-width="1.51"/><path d="M227,-16L224,10L244,-4Z" fill="#87acd6" stroke="#87acd6" stroke-width="1.51"/><path d="M223,21L219,29L240,37Z" fill="#6ca2ce" stroke="#6ca2ce" stroke-width="1.51"/><path d="M98,134L66,139L127,136Z" fill="#5e7caa" stroke="#5e7caa" stroke-width="1.51"/><path d="M219,29L228,50L240,37Z" fill="#5f9bcc" stroke="#5f9bcc" stroke-width="1.51"/><path d="M213,117L225,123L237,108Z" fill="#2269ad" stroke="#2269ad" stroke-width="1.51"/><path d="M222,90L213,117L237,108Z" fill="#2671b3" stroke="#2671b3" stroke-width="1.51"/><path d="M211,92L213,117L222,90Z" fill="#2b77b8" stroke="#2b77b8" stroke-width="1.51"/><path d="M209,-14L224,10L227,-16Z" fill="#8cb1d9" stroke="#8cb1d9" stroke-width="1.51"/><path d="M209,-24L227,-16L233,-29Z" fill="#95b6db" stroke="#95b6db" stroke-width="1.51"/><path d="M221,64L211,92L222,90Z" fill="#3684bf" stroke="#3684bf" stroke-width="1.51"/><path d="M209,-14L203,9L224,10Z" fill="#89b1d9" stroke="#89b1d9" stroke-width="1.51"/><path d="M215,56L221,64L228,50Z" fill="#4b93c7" stroke="#4b93c7" stroke-width="1.51"/><path d="M219,29L215,56L228,50Z" fill="#599bcb" stroke="#599bcb" stroke-width="1.51"/><path d="M213,117L200,128L225,123Z" fill="#2667a8" stroke="#2667a8" stroke-width="1.51"/><path d="M209,-24L209,-14L227,-16Z" fill="#94b7dc" stroke="#94b7dc" stroke-width="1.51"/><path d="M202,62L211,92L221,64Z" fill="#3e8dc4" stroke="#3e8dc4" stroke-width="1.51"/><path d="M202,62L193,75L211,92Z" fill="#3e8dc4" stroke="#3e8dc4" stroke-width="1.51"/><path d="M193,46L215,56L219,29Z" fill="#5da0ce" stroke="#5da0ce" stroke-width="1.51"/><path d="M203,9L223,21L224,10Z" fill="#7eacd5" stroke="#7eacd5" stroke-width="1.51"/><path d="M203,9L219,29L223,21Z" fill="#78aad3" stroke="#78aad3" stroke-width="1.51"/><path d="M215,56L202,62L221,64Z" fill="#4a94c8" stroke="#4a94c8" stroke-width="1.51"/><path d="M211,92L192,103L213,117Z" fill="#2e78b7" stroke="#2e78b7" stroke-width="1.51"/><path d="M203,9L182,31L219,29Z" fill="#78add5" stroke="#78add5" stroke-width="1.51"/><path d="M182,31L193,46L219,29Z" fill="#6ba9d2" stroke="#6ba9d2" stroke-width="1.51"/><path d="M195,-5L203,9L209,-14Z" fill="#8eb7db" stroke="#8eb7db" stroke-width="1.51"/><path d="M193,46L202,62L215,56Z" fill="#529bcb" stroke="#529bcb" stroke-width="1.51"/><path d="M192,103L191,125L200,128Z" fill="#2e71b0" stroke="#2e71b0" stroke-width="1.51"/><path d="M183,16L182,31L203,9Z" fill="#80b4d8" stroke="#80b4d8" stroke-width="1.51"/><path d="M192,103L200,128L213,117Z" fill="#2b70b1" stroke="#2b70b1" stroke-width="1.51"/><path d="M193,75L187,92L211,92Z" fill="#3a88c1" stroke="#3a88c1" stroke-width="1.51"/><path d="M187,92L192,103L211,92Z" fill="#3481bd" stroke="#3481bd" stroke-width="1.51"/><path d="M191,125L172,135L200,128Z" fill="#306aa5" stroke="#306aa5" stroke-width="1.51"/><path d="M209,-24L196,-24L209,-14Z" fill="#98bcde" stroke="#98bcde" stroke-width="1.51"/><path d="M196,-24L195,-5L209,-14Z" fill="#95bbde" stroke="#95bbde" stroke-width="1.51"/><path d="M195,-5L183,16L203,9Z" fill="#8ab6db" stroke="#8ab6db" stroke-width="1.51"/><path d="M193,46L193,75L202,62Z" fill="#4e99cb" stroke="#4e99cb" stroke-width="1.51"/><path d="M175,116L191,125L192,103Z" fill="#3476b4" stroke="#3476b4" stroke-width="1.51"/><path d="M161,51L162,71L193,46Z" fill="#5da3d0" stroke="#5da3d0" stroke-width="1.51"/><path d="M193,46L162,71L193,75Z" fill="#529bcb" stroke="#529bcb" stroke-width="1.51"/><path d="M175,-5L183,16L195,-5Z" fill="#90bbdd" stroke="#90bbdd" stroke-width="1.51"/><path d="M175,-5L195,-5L196,-24Z" fill="#97bedf" stroke="#97bedf" stroke-width="1.51"/><path d="M175,-31L175,-5L196,-24Z" fill="#9ec3e2" stroke="#9ec3e2" stroke-width="1.51"/><path d="M182,31L161,51L193,46Z" fill="#69aad3" stroke="#69aad3" stroke-width="1.51"/><path d="M174,92L187,92L193,75Z" fill="#408bc3" stroke="#408bc3" stroke-width="1.51"/><path d="M162,71L174,92L193,75Z" fill="#4893c7" stroke="#4893c7" stroke-width="1.51"/><path d="M187,92L174,92L192,103Z" fill="#3a85bf" stroke="#3a85bf" stroke-width="1.51"/><path d="M174,92L175,116L192,103Z" fill="#3a7fbb" stroke="#3a7fbb" stroke-width="1.51"/><path d="M177,27L182,31L183,16Z" fill="#7db4d8" stroke="#7db4d8" stroke-width="1.51"/><path d="M175,116L172,135L191,125Z" fill="#3570ab" stroke="#3570ab" stroke-width="1.51"/><path d="M157,129L127,136L172,135Z" fill="#4071a6" stroke="#4071a6" stroke-width="1.51"/><path d="M177,27L161,51L182,31Z" fill="#73afd6" stroke="#73afd6" stroke-width="1.51"/><path d="M175,-5L160,4L183,16Z" fill="#93bedf" stroke="#93bedf" stroke-width="1.51"/><path d="M156,19L177,27L183,16Z" fill="#84b8da" stroke="#84b8da" stroke-width="1.51"/><path d="M160,4L156,19L183,16Z" fill="#8ebcdd" stroke="#8ebcdd" stroke-width="1.51"/><path d="M157,129L172,135L175,116Z" fill="#3b71ac" stroke="#3b71ac" stroke-width="1.51"/><path d="M174,92L153,99L175,116Z" fill="#4184be" stroke="#4184be" stroke-width="1.51"/><path d="M142,-12L160,4L175,-5Z" fill="#9dc5e3" stroke="#9dc5e3" stroke-width="1.51"/><path d="M146,-27L142,-12L175,-5Z" fill="#a5cae6" stroke="#a5cae6" stroke-width="1.51"/><path d="M175,-31L146,-27L175,-5Z" fill="#a5c8e5" stroke="#a5c8e5" stroke-width="1.51"/><path d="M151,38L161,51L177,27Z" fill="#74b1d7" stroke="#74b1d7" stroke-width="1.51"/><path d="M156,19L151,38L177,27Z" fill="#81b8da" stroke="#81b8da" stroke-width="1.51"/><path d="M162,71L153,99L174,92Z" fill="#4a91c7" stroke="#4a91c7" stroke-width="1.51"/><path d="M149,104L157,129L175,116Z" fill="#407cb8" stroke="#407cb8" stroke-width="1.51"/><path d="M153,99L149,104L175,116Z" fill="#4484bd" stroke="#4484bd" stroke-width="1.51"/><path d="M140,68L131,75L153,99Z" fill="#599ccc" stroke="#599ccc" stroke-width="1.51"/><path d="M140,68L153,99L162,71Z" fill="#539acb" stroke="#539acb" stroke-width="1.51"/><path d="M161,51L146,58L162,71Z" fill="#60a5d2" stroke="#60a5d2" stroke-width="1.51"/><path d="M146,58L140,68L162,71Z" fill="#5ea4d1" stroke="#5ea4d1" stroke-width="1.51"/><path d="M136,11L156,19L160,4Z" fill="#95c2e1" stroke="#95c2e1" stroke-width="1.51"/><path d="M151,38L146,58L161,51Z" fill="#6cadd6" stroke="#6cadd6" stroke-width="1.51"/><path d="M106,-31L125,-22L146,-27Z" fill="#b8d6eb" stroke="#b8d6eb" stroke-width="1.51"/><path d="M142,-12L136,11L160,4Z" fill="#9fc7e4" stroke="#9fc7e4" stroke-width="1.51"/><path d="M119,125L127,136L149,104Z" fill="#5080b6" stroke="#5080b6" stroke-width="1.51"/><path d="M136,11L151,38L156,19Z" fill="#8cbede" stroke="#8cbede" stroke-width="1.51"/><path d="M149,104L127,136L157,129Z" fill="#487bb3" stroke="#487bb3" stroke-width="1.51"/><path d="M122,95L126,102L131,75Z" fill="#5e99ca" stroke="#5e99ca" stroke-width="1.51"/><path d="M126,102L119,125L149,104Z" fill="#5388bf" stroke="#5388bf" stroke-width="1.51"/><path d="M136,11L125,34L151,38Z" fill="#8cbfdd" stroke="#8cbfdd" stroke-width="1.51"/><path d="M129,41L146,58L151,38Z" fill="#75b3d8" stroke="#75b3d8" stroke-width="1.51"/><path d="M126,102L149,104L153,99Z" fill="#4f8bc3" stroke="#4f8bc3" stroke-width="1.51"/><path d="M131,75L126,102L153,99Z" fill="#5695c8" stroke="#5695c8" stroke-width="1.51"/><path d="M125,34L129,41L151,38Z" fill="#82badb" stroke="#82badb" stroke-width="1.51"/><path d="M129,-15L136,11L142,-12Z" fill="#a8cce6" stroke="#a8cce6" stroke-width="1.51"/><path d="M129,-15L142,-12L146,-27Z" fill="#aecfe8" stroke="#aecfe8" stroke-width="1.51"/><path d="M125,-22L129,-15L146,-27Z" fill="#b2d3e9" stroke="#b2d3e9" stroke-width="1.51"/><path d="M119,55L140,68L146,58Z" fill="#6bacd4" stroke="#6bacd4" stroke-width="1.51"/><path d="M129,41L119,55L146,58Z" fill="#75b2d8" stroke="#75b2d8" stroke-width="1.51"/><path d="M-18,-31L49,-27L82,-40Z" fill="#dfebf7" stroke="#dfebf7" stroke-width="1.51"/><path d="M119,55L131,75L140,68Z" fill="#6aaad3" stroke="#6aaad3" stroke-width="1.51"/><path d="M114,32L125,34L136,11Z" fill="#94c4df" stroke="#94c4df" stroke-width="1.51"/><path d="M109,7L114,32L136,11Z" fill="#a0c9e2" stroke="#a0c9e2" stroke-width="1.51"/><path d="M129,-15L109,7L136,11Z" fill="#a9cde6" stroke="#a9cde6" stroke-width="1.51"/><path d="M108,115L119,125L126,102Z" fill="#5b89bf" stroke="#5b89bf" stroke-width="1.51"/><path d="M101,-7L109,7L129,-15Z" fill="#b3d3e9" stroke="#b3d3e9" stroke-width="1.51"/><path d="M119,55L104,69L131,75Z" fill="#70add4" stroke="#70add4" stroke-width="1.51"/><path d="M101,81L122,95L131,75Z" fill="#66a0ce" stroke="#66a0ce" stroke-width="1.51"/><path d="M104,69L101,81L131,75Z" fill="#6ea9d2" stroke="#6ea9d2" stroke-width="1.51"/><path d="M125,-22L101,-7L129,-15Z" fill="#b5d5e9" stroke="#b5d5e9" stroke-width="1.51"/><path d="M125,34L114,32L129,41Z" fill="#8bbfdd" stroke="#8bbfdd" stroke-width="1.51"/><path d="M114,32L119,55L129,41Z" fill="#84bbdc" stroke="#84bbdc" stroke-width="1.51"/><path d="M119,125L98,134L127,136Z" fill="#577cad" stroke="#577cad" stroke-width="1.51"/><path d="M122,95L108,115L126,102Z" fill="#5d90c4" stroke="#5d90c4" stroke-width="1.51"/><path d="M106,-31L101,-7L125,-22Z" fill="#bcd9eb" stroke="#bcd9eb" stroke-width="1.51"/><path d="M114,32L97,50L119,55Z" fill="#86bcdc" stroke="#86bcdc" stroke-width="1.51"/><path d="M96,90L108,115L122,95Z" fill="#6497c8" stroke="#6497c8" stroke-width="1.51"/><path d="M101,81L96,90L122,95Z" fill="#6aa0cd" stroke="#6aa0cd" stroke-width="1.51"/><path d="M95,12L99,32L109,7Z" fill="#a8cfe4" stroke="#a8cfe4" stroke-width="1.51"/><path d="M109,7L99,32L114,32Z" fill="#9fcae2" stroke="#9fcae2" stroke-width="1.51"/><path d="M97,50L104,69L119,55Z" fill="#7db6d8" stroke="#7db6d8" stroke-width="1.51"/><path d="M108,115L98,134L119,125Z" fill="#5c83b6" stroke="#5c83b6" stroke-width="1.51"/><path d="M-18,-31L13,-23L49,-27Z" fill="#e2edf8" stroke="#e2edf8" stroke-width="1.51"/><path d="M96,90L88,103L108,115Z" fill="#6997c8" stroke="#6997c8" stroke-width="1.51"/><path d="M99,32L97,50L114,32Z" fill="#92c3df" stroke="#92c3df" stroke-width="1.51"/><path d="M97,50L97,70L104,69Z" fill="#7eb4d8" stroke="#7eb4d8" stroke-width="1.51"/><path d="M81,-10L101,-7L106,-31Z" fill="#c0dbec" stroke="#c0dbec" stroke-width="1.51"/><path d="M101,-7L95,12L109,7Z" fill="#b3d3e8" stroke="#b3d3e8" stroke-width="1.51"/><path d="M88,103L98,134L108,115Z" fill="#648cbf" stroke="#648cbf" stroke-width="1.51"/><path d="M97,70L101,81L104,69Z" fill="#75add4" stroke="#75add4" stroke-width="1.51"/><path d="M82,-40L81,-10L106,-31Z" fill="#c9e0ef" stroke="#c9e0ef" stroke-width="1.51"/><path d="M13,-23L32,-23L49,-27Z" fill="#dce9f6" stroke="#dce9f6" stroke-width="1.51"/><path d="M88,103L61,116L98,134Z" fill="#6b8ec1" stroke="#6b8ec1" stroke-width="1.51"/><path d="M97,70L96,90L101,81Z" fill="#73a8d1" stroke="#73a8d1" stroke-width="1.51"/><path d="M81,-10L95,12L101,-7Z" fill="#bad7ea" stroke="#bad7ea" stroke-width="1.51"/><path d="M81,-10L77,11L95,12Z" fill="#bbd5ea" stroke="#bbd5ea" stroke-width="1.51"/><path d="M67,83L96,90L97,70Z" fill="#78aad3" stroke="#78aad3" stroke-width="1.51"/><path d="M97,50L64,50L97,70Z" fill="#88bbdc" stroke="#88bbdc" stroke-width="1.51"/><path d="M61,116L66,139L98,134Z" fill="#6a85b4" stroke="#6a85b4" stroke-width="1.51"/><path d="M77,11L61,23L99,32Z" fill="#add0e6" stroke="#add0e6" stroke-width="1.51"/><path d="M64,50L97,50L99,32Z" fill="#94c2e0" stroke="#94c2e0" stroke-width="1.51"/><path d="M61,23L64,50L99,32Z" fill="#a2cae3" stroke="#a2cae3" stroke-width="1.51"/><path d="M95,12L77,11L99,32Z" fill="#accfe6" stroke="#accfe6" stroke-width="1.51"/><path d="M63,77L67,83L97,70Z" fill="#7fafd6" stroke="#7fafd6" stroke-width="1.51"/><path d="M64,50L63,77L97,70Z" fill="#87b7da" stroke="#87b7da" stroke-width="1.51"/><path d="M58,66L63,77L64,50Z" fill="#8ebadd" stroke="#8ebadd" stroke-width="1.51"/><path d="M67,83L88,103L96,90Z" fill="#74a2cf" stroke="#74a2cf" stroke-width="1.51"/><path d="M62,-22L81,-10L82,-40Z" fill="#cde2f1" stroke="#cde2f1" stroke-width="1.51"/><path d="M67,83L61,116L88,103Z" fill="#769dcd" stroke="#769dcd" stroke-width="1.51"/><path d="M50,98L61,116L67,83Z" fill="#7ca0d0" stroke="#7ca0d0" stroke-width="1.51"/><path d="M63,-4L77,11L81,-10Z" fill="#c2d9ed" stroke="#c2d9ed" stroke-width="1.51"/><path d="M49,-27L62,-22L82,-40Z" fill="#d5e6f4" stroke="#d5e6f4" stroke-width="1.51"/><path d="M62,-22L63,-4L81,-10Z" fill="#cadef0" stroke="#cadef0" stroke-width="1.51"/><path d="M61,23L53,45L64,50Z" fill="#a4cae4" stroke="#a4cae4" stroke-width="1.51"/><path d="M63,-4L61,23L77,11Z" fill="#bdd7eb" stroke="#bdd7eb" stroke-width="1.51"/><path d="M50,39L53,45L61,23Z" fill="#aacde6" stroke="#aacde6" stroke-width="1.51"/><path d="M41,1L61,23L63,-4Z" fill="#c5dbee" stroke="#c5dbee" stroke-width="1.51"/><path d="M62,-22L56,-14L63,-4Z" fill="#cee0f1" stroke="#cee0f1" stroke-width="1.51"/><path d="M52,127L24,137L66,139Z" fill="#7386b2" stroke="#7386b2" stroke-width="1.51"/><path d="M61,116L52,127L66,139Z" fill="#7289b9" stroke="#7289b9" stroke-width="1.51"/><path d="M63,77L50,98L67,83Z" fill="#82aad5" stroke="#82aad5" stroke-width="1.51"/><path d="M53,45L58,66L64,50Z" fill="#97c1e1" stroke="#97c1e1" stroke-width="1.51"/><path d="M41,1L34,19L61,23Z" fill="#c1d9ed" stroke="#c1d9ed" stroke-width="1.51"/><path d="M50,98L46,117L61,116Z" fill="#7b99c9" stroke="#7b99c9" stroke-width="1.51"/><path d="M56,-14L41,1L63,-4Z" fill="#ccdff1" stroke="#ccdff1" stroke-width="1.51"/><path d="M58,66L38,62L63,77Z" fill="#8eb9dc" stroke="#8eb9dc" stroke-width="1.51"/><path d="M38,62L50,98L63,77Z" fill="#88b1d9" stroke="#88b1d9" stroke-width="1.51"/><path d="M49,-27L56,-14L62,-22Z" fill="#d4e4f4" stroke="#d4e4f4" stroke-width="1.51"/><path d="M53,45L38,62L58,66Z" fill="#97c0e1" stroke="#97c0e1" stroke-width="1.51"/><path d="M34,19L50,39L61,23Z" fill="#b4d3e8" stroke="#b4d3e8" stroke-width="1.51"/><path d="M46,117L52,127L61,116Z" fill="#7791c2" stroke="#7791c2" stroke-width="1.51"/><path d="M38,62L24,95L50,98Z" fill="#89afd8" stroke="#89afd8" stroke-width="1.51"/><path d="M49,-27L30,-16L56,-14Z" fill="#d6e5f5" stroke="#d6e5f5" stroke-width="1.51"/><path d="M30,-16L41,1L56,-14Z" fill="#d1e2f3" stroke="#d1e2f3" stroke-width="1.51"/><path d="M32,-23L30,-16L49,-27Z" fill="#d9e7f6" stroke="#d9e7f6" stroke-width="1.51"/><path d="M37,118L24,137L52,127Z" fill="#788dbb" stroke="#788dbb" stroke-width="1.51"/><path d="M50,39L29,54L53,45Z" fill="#a2c9e5" stroke="#a2c9e5" stroke-width="1.51"/><path d="M29,54L38,62L53,45Z" fill="#9cc4e3" stroke="#9cc4e3" stroke-width="1.51"/><path d="M37,118L46,117L50,98Z" fill="#7d99ca" stroke="#7d99ca" stroke-width="1.51"/><path d="M46,117L37,118L52,127Z" fill="#7991c3" stroke="#7991c3" stroke-width="1.51"/><path d="M34,19L23,33L50,39Z" fill="#b5d3e9" stroke="#b5d3e9" stroke-width="1.51"/><path d="M23,33L29,54L50,39Z" fill="#a9cde6" stroke="#a9cde6" stroke-width="1.51"/><path d="M24,95L37,118L50,98Z" fill="#81a0cf" stroke="#81a0cf" stroke-width="1.51"/><path d="M14,71L24,95L38,62Z" fill="#91b8dc" stroke="#91b8dc" stroke-width="1.51"/><path d="M17,4L34,19L41,1Z" fill="#cadef0" stroke="#cadef0" stroke-width="1.51"/><path d="M30,-16L17,4L41,1Z" fill="#d1e2f3" stroke="#d1e2f3" stroke-width="1.51"/><path d="M24,95L13,123L37,118Z" fill="#829ccb" stroke="#829ccb" stroke-width="1.51"/><path d="M13,123L24,137L37,118Z" fill="#7c90be" stroke="#7c90be" stroke-width="1.51"/><path d="M29,54L14,71L38,62Z" fill="#99c1e1" stroke="#99c1e1" stroke-width="1.51"/><path d="M6,110L13,123L24,95Z" fill="#869fcd" stroke="#869fcd" stroke-width="1.51"/><path d="M14,71L8,80L24,95Z" fill="#91b5db" stroke="#91b5db" stroke-width="1.51"/><path d="M12,-12L17,4L30,-16Z" fill="#d6e5f5" stroke="#d6e5f5" stroke-width="1.51"/><path d="M17,4L23,33L34,19Z" fill="#c2dbed" stroke="#c2dbed" stroke-width="1.51"/><path d="M23,33L14,36L29,54Z" fill="#adcfe7" stroke="#adcfe7" stroke-width="1.51"/><path d="M11,57L14,71L29,54Z" fill="#9dc3e2" stroke="#9dc3e2" stroke-width="1.51"/><path d="M13,-23L30,-16L32,-23Z" fill="#dce9f6" stroke="#dce9f6" stroke-width="1.51"/><path d="M14,36L11,57L29,54Z" fill="#a6cbe6" stroke="#a6cbe6" stroke-width="1.51"/><path d="M13,-23L12,-12L30,-16Z" fill="#dbe9f6" stroke="#dbe9f6" stroke-width="1.51"/><path d="M17,4L14,36L23,33Z" fill="#bfd9ec" stroke="#bfd9ec" stroke-width="1.51"/><path d="M-14,19L14,36L17,4Z" fill="#c6deee" stroke="#c6deee" stroke-width="1.51"/><path d="M13,123L-4,121L24,137Z" fill="#7f92be" stroke="#7f92be" stroke-width="1.51"/><path d="M-4,121L-21,137L24,137Z" fill="#808fb9" stroke="#808fb9" stroke-width="1.51"/><path d="M8,80L-3,91L24,95Z" fill="#8fb0d9" stroke="#8fb0d9" stroke-width="1.51"/><path d="M-3,91L6,110L24,95Z" fill="#8ba8d4" stroke="#8ba8d4" stroke-width="1.51"/><path d="M-14,19L-13,27L14,36Z" fill="#c2dced" stroke="#c2dced" stroke-width="1.51"/><path d="M12,-12L-9,-3L17,4Z" fill="#d7e6f5" stroke="#d7e6f5" stroke-width="1.51"/><path d="M-9,-3L-14,19L17,4Z" fill="#d3e4f4" stroke="#d3e4f4" stroke-width="1.51"/><path d="M11,57L-14,76L14,71Z" fill="#9bc1e1" stroke="#9bc1e1" stroke-width="1.51"/><path d="M-14,76L8,80L14,71Z" fill="#97bcde" stroke="#97bcde" stroke-width="1.51"/><path d="M-13,43L11,57L14,36Z" fill="#add0e8" stroke="#add0e8" stroke-width="1.51"/><path d="M-13,27L-13,43L14,36Z" fill="#bad7eb" stroke="#bad7eb" stroke-width="1.51"/><path d="M-9,-3L12,-12L13,-23Z" fill="#dceaf6" stroke="#dceaf6" stroke-width="1.51"/><path d="M-18,-31L-9,-3L13,-23Z" fill="#e2edf9" stroke="#e2edf9" stroke-width="1.51"/><path d="M6,110L-4,121L13,123Z" fill="#859ac9" stroke="#859ac9" stroke-width="1.51"/><path d="M-13,43L-14,76L11,57Z" fill="#a5c8e5" stroke="#a5c8e5" stroke-width="1.51"/><path d="M-14,76L-3,91L8,80Z" fill="#96b7dc" stroke="#96b7dc" stroke-width="1.51"/><path d="M-18,-31L-24,-14L-9,-3Z" fill="#e4eef8" stroke="#e4eef8" stroke-width="1.51"/><path d="M-3,91L-20,110L6,110Z" fill="#8da6d2" stroke="#8da6d2" stroke-width="1.51"/><path d="M-20,110L-4,121L6,110Z" fill="#8a9fcc" stroke="#8a9fcc" stroke-width="1.51"/><path d="M-38,59L-38,60L-14,76Z" fill="#a7c8e4" stroke="#a7c8e4" stroke-width="1.51"/><path d="M-38,59L-14,76L-13,43Z" fill="#a9cbe6" stroke="#a9cbe6" stroke-width="1.51"/><path d="M-14,76L-27,104L-3,91Z" fill="#95b3da" stroke="#95b3da" stroke-width="1.51"/><path d="M-27,104L-20,110L-3,91Z" fill="#91aad5" stroke="#91aad5" stroke-width="1.51"/><path d="M-33,84L-27,104L-14,76Z" fill="#99b6db" stroke="#99b6db" stroke-width="1.51"/><path d="M-20,110L-21,137L-4,121Z" fill="#8899c5" stroke="#8899c5" stroke-width="1.51"/><path d="M-24,-14L-33,18L-9,-3Z" fill="#dde9f7" stroke="#dde9f7" stroke-width="1.51"/><path d="M-27,21L-14,19L-9,-3Z" fill="#d2e4f2" stroke="#d2e4f2" stroke-width="1.51"/><path d="M-33,18L-27,21L-9,-3Z" fill="#d4e5f4" stroke="#d4e5f4" stroke-width="1.51"/><path d="M-38,60L-33,84L-14,76Z" fill="#a1c3e1" stroke="#a1c3e1" stroke-width="1.51"/><path d="M-14,19L-27,21L-13,27Z" fill="#c9e1ef" stroke="#c9e1ef" stroke-width="1.51"/><path d="M-13,27L-27,21L-13,43Z" fill="#c2dced" stroke="#c2dced" stroke-width="1.51"/><path d="M-27,21L-38,59L-13,43Z" fill="#bad7eb" stroke="#bad7eb" stroke-width="1.51"/><path d="M-27,104L-21,137L-20,110Z" fill="#8d9fcc" stroke="#8d9fcc" stroke-width="1.51"/><path d="M-36,-27L-24,-14L-18,-31Z" fill="#ebf3fb" stroke="#ebf3fb" stroke-width="1.51"/><path d="M-33,18L-38,59L-27,21Z" fill="#c4deee" stroke="#c4deee" stroke-width="1.51"/><path d="M-27,104L-33,84L-21,137Z" fill="#91a7d1" stroke="#91a7d1" stroke-width="1.51"/><path d="M-36,-27L-33,18L-24,-14Z" fill="#e3eef9" stroke="#e3eef9" stroke-width="1.51"/><path d="M-36,-27L-38,59L-33,18Z" fill="#d4e6f3" stroke="#d4e6f3" stroke-width="1.51"/></svg>